<?xml version="1.0" encoding="UTF-8"?>
<svg version="1.1" xmlns="http://www.w3.org/2000/svg" width="500" height="500">
<path d="M0 0 C165 0 330 0 500 0 C500 165 500 330 500 500 C335 500 170 500 0 500 C0 335 0 170 0 0 Z " fill="#FEFEFE" transform="translate(0,0)"/>
<path d="M0 0 C0.69947754 0.32677734 1.39895508 0.65355469 2.11962891 0.99023438 C24.42506333 11.78567395 39.41746347 30.75282165 47.69091797 53.93603516 C56.592443 80.80949294 55.41989875 109.48903596 43.0703125 134.96875 C32.4621305 155.96962 15.0161964 172.99813778 -7.5 180.4375 C-26.61564532 186.60623781 -47.11304429 185.43963099 -65.125 176.25 C-67.09449681 175.18709696 -69.05763391 174.11170793 -71 173 C-71 176.63 -71 180.26 -71 184 C-80.9 184 -90.8 184 -101 184 C-101 158.59 -101 133.18 -101 107 C-81.2 107 -61.4 107 -41 107 C-41 109.64 -41 112.28 -41 115 C-51.23 115 -61.46 115 -72 115 C-72 131.83 -72 148.66 -72 166 C-68.48937653 167.40424939 -64.98660839 168.7642865 -61.4375 170.0625 C-60.50808594 170.40410156 -59.57867187 170.74570313 -58.62109375 171.09765625 C-53.59567458 172.82771859 -49.05526494 173.18288673 -43.75 173.1875 C-43.02425781 173.19974609 -42.29851562 173.21199219 -41.55078125 173.22460938 C-27.61625429 173.26186747 -15.01306831 166.83105117 -5.1640625 157.22265625 C-4.44992187 156.48917969 -3.73578125 155.75570312 -3 155 C-2.38898438 154.42121094 -1.77796875 153.84242188 -1.1484375 153.24609375 C16.28283543 135.45664397 20.46937203 108.52227558 20.43164062 84.8190918 C20.03272588 60.3517849 11.48594438 38.05595248 -5.375 20.1875 C-16.58089798 9.44133117 -31.10117055 3.61514848 -46.52734375 3.7890625 C-61.83476275 4.71887198 -75.04861183 12.53395887 -85.4140625 23.5703125 C-90.54756769 29.5966012 -94.5024435 35.90887565 -98 43 C-98.33 43 -98.66 43 -99 43 C-99.64221184 37.80878761 -100.09718032 33.05046813 -97.5703125 28.328125 C-95.50865331 25.72828168 -93.32504013 23.36683007 -91 21 C-90.25234375 20.16597656 -89.5046875 19.33195312 -88.734375 18.47265625 C-66.40772636 -5.51740165 -30.00960639 -14.02384249 0 0 Z " fill="#020202" transform="translate(352,82)"/>
<path d="M0 0 C7.4399479 4.78073142 14.08280172 10.43848457 20 17 C20.90105469 17.91845703 20.90105469 17.91845703 21.8203125 18.85546875 C26.29985464 23.90797559 26.55644659 28.00931314 26.2109375 34.65625 C26.14132813 35.4296875 26.07171875 36.203125 26 37 C23.31044773 33.75859576 21.05800276 30.50859808 18.9375 26.875 C10.65665618 13.80183806 -1.21933424 4.58710317 -16 0 C-31.06394322 -3.01278864 -45.58320135 -1.17006104 -58.59765625 7.24609375 C-74.8277771 19.09540149 -85.85305266 35.63057016 -91 55 C-91.29777344 56.05574219 -91.59554687 57.11148438 -91.90234375 58.19921875 C-98.51060742 85.39359413 -93.43784626 113.91756003 -79.84375 138.03515625 C-70.81395289 152.55552914 -57.57452803 164.19045869 -40.71484375 168.5625 C-25.13187719 171.07371188 -10.4344873 167.07477622 2.5234375 158.2890625 C11.66408686 151.39841914 18.3413681 142.74027864 23.90625 132.80078125 C24.2671875 132.20652344 24.628125 131.61226562 25 131 C25.33 131 25.66 131 26 131 C26.72767478 137.17946043 26.83369122 141.71245666 22.875 146.75 C21.60054585 148.18217103 20.30951033 149.59981075 19 151 C18.06135199 152.18659277 17.12378174 153.37403923 16.1875 154.5625 C5.01239648 167.36792367 -12.1652778 176.62741775 -29 179 C-53.28645749 180.61202331 -73.47419997 177.33575399 -92.60546875 161.140625 C-93.39566406 160.43421875 -94.18585938 159.7278125 -95 159 C-95.82113281 158.27296875 -96.64226562 157.5459375 -97.48828125 156.796875 C-115.51141551 139.8669013 -126.06348604 115.02062077 -127.109375 90.42822266 C-127.9708479 59.73286634 -119.48494053 34.11580333 -98.328125 11.33984375 C-86.66979691 -0.3771672 -72.95646618 -7.22924631 -57 -11 C-56.37085693 -11.1743457 -55.74171387 -11.34869141 -55.09350586 -11.52832031 C-36.09633803 -15.80849853 -16.18889776 -9.75188365 0 0 Z " fill="#030303" transform="translate(224,87)"/>
<path d="M0 0 C6.6 0 13.2 0 20 0 C22.33590112 7.332518 24.66920431 14.66585751 27 22 C27.29310059 22.92200195 27.58620117 23.84400391 27.88818359 24.79394531 C28.69746595 27.34142541 29.50524925 29.88937549 30.3125 32.4375 C30.55436035 33.19844971 30.7962207 33.95939941 31.04541016 34.7434082 C32.43739003 39.14349682 33.75302987 43.55657122 35 48 C36.75837181 45.36244228 37.62785779 43.48182008 38.60400391 40.52856445 C38.90416412 39.62785721 39.20432434 38.72714996 39.51358032 37.79914856 C39.83136444 36.83031235 40.14914856 35.86147614 40.4765625 34.86328125 C40.80667328 33.86870407 41.13678406 32.87412689 41.47689819 31.84941101 C42.53049569 28.67182323 43.57781575 25.49220636 44.625 22.3125 C45.33812927 20.15806658 46.05166594 18.00376796 46.765625 15.84960938 C48.51514818 10.56795899 50.25904417 5.28448027 52 0 C58.6 0 65.2 0 72 0 C72 22.11 72 44.22 72 67 C67.71 67 63.42 67 59 67 C58.67 50.83 58.34 34.66 58 18 C56.5975 22.186875 55.195 26.37375 53.75 30.6875 C53.31655273 31.97873779 52.88310547 33.26997559 52.43652344 34.6003418 C50.1578117 41.42046611 47.96598866 48.25936584 45.87890625 55.140625 C44.65618608 59.11854127 43.33598834 63.0588344 42 67 C37.38 67 32.76 67 28 67 C27.69707031 65.94683594 27.39414062 64.89367187 27.08203125 63.80859375 C25.01609149 56.67860246 22.90019696 49.58783841 20.5 42.5625 C17.71280646 34.13123954 15.37668053 25.55604993 13 17 C13 33.5 13 50 13 67 C8.71 67 4.42 67 0 67 C0 44.89 0 22.78 0 0 Z " fill="#071A26" transform="translate(293,290)"/>
<path d="M0 0 C34.44324324 0 34.44324324 0 40.9375 5.875 C41.48277344 6.34679687 42.02804687 6.81859375 42.58984375 7.3046875 C46.28856415 11.75134859 46.48766984 16.65349837 46.3828125 22.2109375 C45.5917691 27.97425372 42.46431469 31.6378468 38.3125 35.5 C36 37 36 37 34 37 C39.56401637 46.04878654 45.23676551 54.95495482 51.3828125 63.62109375 C53 66 53 66 53 67 C47.60291807 68.30943323 42.23415253 69.33828927 37 67 C30.01828342 60.09152416 25.51159136 50.06704656 22 41 C19.36 41 16.72 41 14 41 C14 49.58 14 58.16 14 67 C9.38 67 4.76 67 0 67 C0 44.89 0 22.78 0 0 Z " fill="#051924" transform="translate(220,290)"/>
<path d="M0 0 C5.94 0 11.88 0 18 0 C21.05641675 7.49448347 23.85570706 15.05101244 26.546875 22.68359375 C26.96294006 23.86091568 27.37900513 25.03823761 27.80767822 26.25123596 C28.67939717 28.72072026 29.54996562 31.19061094 30.41943359 33.66088867 C31.53336556 36.82545646 32.65361953 39.98774765 33.77537155 43.14955044 C34.84921702 46.18025921 35.91637707 49.21332038 36.984375 52.24609375 C37.38742859 53.38042343 37.79048218 54.51475311 38.20574951 55.68345642 C38.75697479 57.25638206 38.75697479 57.25638206 39.31933594 58.86108398 C39.80753815 60.24480446 39.80753815 60.24480446 40.30560303 61.65647888 C41 64 41 64 41 67 C36.05 67 31.1 67 26 67 C22 54.375 22 54.375 22 51 C9.625 51.495 9.625 51.495 -3 52 C-4.65 56.95 -6.3 61.9 -8 67 C-12.95 67 -17.9 67 -23 67 C-22.27486063 63.37430316 -21.49246578 60.26945531 -20.29760742 56.81762695 C-19.77652657 55.30499016 -19.77652657 55.30499016 -19.24491882 53.76179504 C-18.8689003 52.68153549 -18.49288177 51.60127594 -18.10546875 50.48828125 C-17.71684158 49.36487839 -17.32821442 48.24147552 -16.92781067 47.08403015 C-16.1047334 44.7072486 -15.28004222 42.33102541 -14.45385742 39.95532227 C-13.19870163 36.34472276 -11.94954205 32.73209108 -10.70117188 29.11914062 C-9.89879682 26.80456291 -9.09607351 24.49010588 -8.29296875 22.17578125 C-7.92302292 21.10564285 -7.55307709 20.03550446 -7.17192078 18.93293762 C-4.94690861 12.54687924 -2.55751723 6.26056276 0 0 Z " fill="#061A26" transform="translate(158,290)"/>
<path d="M0 0 C6.36946483 4.24949303 12.15140868 9.08844114 16.41796875 15.48828125 C16.01946933 21.30878795 10.38143858 25.72119956 6.41796875 29.48828125 C3.23145945 31.84629814 -0.03700178 33.72449811 -3.58203125 35.48828125 C-4.19175781 35.82730469 -4.80148437 36.16632813 -5.4296875 36.515625 C-12.96962479 40.11159509 -22.98049772 39.64670927 -30.93359375 37.64453125 C-41.40111716 33.64144736 -49.47709389 26.81940503 -55.58203125 17.48828125 C-51.81033763 9.28894729 -45.26183892 3.91038516 -37.58203125 -0.51171875 C-36.91816406 -0.92679688 -36.25429688 -1.341875 -35.5703125 -1.76953125 C-25.15988613 -7.44073495 -9.98022427 -5.84318728 0 0 Z " fill="#040404" transform="translate(331.58203125,146.51171875)"/>
<path d="M0 0 C7.47086572 4.28612723 15.26189525 8.97791269 19.55859375 16.70703125 C20.19921875 19.26171875 20.19921875 19.26171875 19.25 21.4375 C11.34183853 31.1583187 1.1899043 39.28142593 -11.5625 40.671875 C-24.85452855 41.38902482 -34.45289551 37.24295385 -44.43359375 28.53515625 C-47.53738064 25.55429161 -49.81015353 23.09552028 -51.80078125 19.26171875 C-49.57120787 11.13877013 -42.29529744 5.84303974 -35.31152344 1.77563477 C-24.23949959 -4.1515815 -11.64411811 -5.6342507 0 0 Z " fill="#030303" transform="translate(211.80078125,144.73828125)"/>
<path d="M0 0 C-0.60698743 4.12751449 -2.03810791 7.3321148 -4 11 C-7.46941546 10.54177532 -10.67395049 10.10868317 -14 9 C-15.66368258 8.88233824 -17.33220803 8.82490917 -19 8.8125 C-19.86625 8.79832031 -20.7325 8.78414063 -21.625 8.76953125 C-24.26721537 8.83744062 -24.26721537 8.83744062 -27 11 C-27.91788912 14.37033135 -27.91788912 14.37033135 -27 18 C-24.66626349 20.25594529 -21.88374064 21.55360971 -19 23 C-1.90567859 32.14236688 -1.90567859 32.14236688 1 41 C1.86925701 46.70812104 1.22500188 51.10689369 -2 56 C-6.01310271 61.10758527 -10.79615571 63.46553851 -17 65 C-25.67573261 65.90372215 -33.81748262 65.06645797 -42 62 C-43 61 -43 61 -43.09765625 58.05859375 C-43.08605469 56.86363281 -43.07445312 55.66867187 -43.0625 54.4375 C-43.05347656 53.23996094 -43.04445313 52.04242188 -43.03515625 50.80859375 C-43.02355469 49.88175781 -43.01195312 48.95492187 -43 48 C-41.20763933 48.47656412 -39.41613103 48.95633498 -37.625 49.4375 C-36.62726563 49.70433594 -35.62953125 49.97117187 -34.6015625 50.24609375 C-32 51 -32 51 -30 52 C-21.44507917 52.72573563 -21.44507917 52.72573563 -14 49 C-13.88377389 46.09434723 -13.85386207 44.60772666 -15 42 C-18.73422359 38.92996638 -23.10955312 36.94064239 -27.41796875 34.796875 C-33.63301156 31.58773069 -38.80867738 27.38264524 -42 21 C-42.71928465 14.32092824 -42.86716635 8.24176522 -38.73046875 2.69140625 C-27.74112341 -8.04987261 -13.08940681 -4.3631356 0 0 Z " fill="#071B27" transform="translate(432,293)"/>
<path d="M0 0 C-0.66010476 2.84550012 -1.51724966 5.52325999 -2.5625 8.25 C-2.83191406 8.95640625 -3.10132813 9.6628125 -3.37890625 10.390625 C-3.58386719 10.92171875 -3.78882813 11.4528125 -4 12 C-4.59425781 11.7834375 -5.18851563 11.566875 -5.80078125 11.34375 C-13.39612074 8.79228293 -20.86674751 7.19639892 -28.4375 10.5 C-32.80800434 14.76390667 -35.14889548 19.52330897 -35.53125 25.65625 C-35.54171731 27.27083301 -35.5310944 28.8856825 -35.5 30.5 C-35.51546875 31.30308594 -35.5309375 32.10617187 -35.546875 32.93359375 C-35.50929096 38.73093221 -34.23196035 43.15597743 -31 48 C-27.43102105 51.48193068 -24.65341375 52.25087401 -19.8125 52.375 C-14.07739726 52.1701749 -8.61148887 51.16602366 -3 50 C-3 53.96 -3 57.92 -3 62 C-7.25699726 63.7027989 -10.53539913 64.65360855 -15 65 C-16.03640625 65.08894531 -17.0728125 65.17789063 -18.140625 65.26953125 C-27.86362244 65.72998157 -35.5843307 63.91340964 -42.9375 57.2421875 C-51.08634473 47.50431804 -52.01826698 35.13120535 -51 23 C-49.69899418 14.94666643 -46.14674047 7.47047993 -39.8203125 2.17578125 C-27.18312369 -6.61068168 -13.90552398 -4.99172656 0 0 Z " fill="#071B27" transform="translate(120,293)"/>
<path d="M0 0 C3.40920514 2.411389 5.69634878 5.08019755 7.5625 8.8125 C8.7389816 23.682456 8.7389816 23.682456 3.5625 29.8125 C-1.15132599 33.55938732 -6.56622371 33.37461772 -12.3671875 33.22265625 C-17.04018034 32.59840148 -18.4768299 31.47438144 -21.4375 27.8125 C-24.85966795 22.10888675 -25.44596059 16.38163111 -24.4375 9.8125 C-22.80406928 5.7188403 -20.50134009 2.81376126 -17.3125 -0.1875 C-11.58558468 -2.17947055 -5.69687855 -1.96801259 0 0 Z " fill="#0B1E2A" transform="translate(171.4375,382.1875)"/>
<path d="M0 0 C18.0096463 0 18.0096463 0 23 4 C27.94246591 9.32265559 28.34012446 12.90559577 28.2890625 20.01171875 C27.9089135 23.9416375 26.61765134 26.0831885 24 29 C23.525625 29.5775 23.05125 30.155 22.5625 30.75 C15.78880815 36.16895348 8.74240717 34 0 34 C0 22.78 0 11.56 0 0 Z " fill="#0B1F2A" transform="translate(213,381)"/>
<path d="M0 0 C9 0 9 0 10.91015625 1.4765625 C11.48056641 2.54003906 11.48056641 2.54003906 12.0625 3.625 C12.52011719 4.43066406 12.97773438 5.23632812 13.44921875 6.06640625 C13.96097656 7.03449219 14.47273438 8.00257813 15 9 C16.04599549 10.82863222 17.10596248 12.64870877 18.16723633 14.46850586 C19.80021527 17.2997289 21.39631717 20.1520805 23 23 C23.33 15.41 23.66 7.82 24 0 C25.98 0 27.96 0 30 0 C30 11.22 30 22.44 30 34 C27.03 34 24.06 34 21 34 C18.546875 31.47265625 18.546875 31.47265625 16.75 28.0625 C15.84507812 26.40927734 15.84507812 26.40927734 14.921875 24.72265625 C14.28765625 23.49417969 13.6534375 22.26570313 13 21 C11.35 18.03 9.7 15.06 8 12 C7.67 19.26 7.34 26.52 7 34 C4.69 34 2.38 34 0 34 C0 22.78 0 11.56 0 0 Z " fill="#0E212D" transform="translate(317,381)"/>
<path d="M0 0 C0.54140625 0.32097656 1.0828125 0.64195312 1.640625 0.97265625 C0.980625 2.62265625 0.320625 4.27265625 -0.359375 5.97265625 C-1.17921875 5.92625 -1.9990625 5.87984375 -2.84375 5.83203125 C-3.92140625 5.7959375 -4.9990625 5.75984375 -6.109375 5.72265625 C-7.17671875 5.67625 -8.2440625 5.62984375 -9.34375 5.58203125 C-13.03370906 6.06000522 -14.08564226 7.10392803 -16.359375 9.97265625 C-17.52235473 12.29861571 -17.52538191 13.75988856 -17.546875 16.34765625 C-17.56105469 17.11851562 -17.57523437 17.889375 -17.58984375 18.68359375 C-17.32386447 21.32535407 -16.93238512 22.82209316 -15.359375 24.97265625 C-12.95532762 25.88865052 -12.95532762 25.88865052 -10.234375 26.22265625 C-9.32429688 26.3721875 -8.41421875 26.52171875 -7.4765625 26.67578125 C-6.77789062 26.77375 -6.07921875 26.87171875 -5.359375 26.97265625 C-5.359375 24.66265625 -5.359375 22.35265625 -5.359375 19.97265625 C-7.339375 19.97265625 -9.319375 19.97265625 -11.359375 19.97265625 C-11.359375 17.99265625 -11.359375 16.01265625 -11.359375 13.97265625 C-7.069375 13.97265625 -2.779375 13.97265625 1.640625 13.97265625 C1.640625 19.91265625 1.640625 25.85265625 1.640625 31.97265625 C-1.92377918 33.16079098 -4.91412282 33.21453578 -8.671875 33.28515625 C-9.96738281 33.32253906 -11.26289063 33.35992187 -12.59765625 33.3984375 C-16.93678804 32.90730005 -18.99646452 31.69785926 -22.359375 28.97265625 C-26.3953085 23.59141159 -25.9645427 17.40472436 -25.359375 10.97265625 C-24.54227269 6.55069081 -22.50096901 3.71389605 -18.921875 1.03515625 C-13.35497789 -2.10461503 -5.88724864 -2.5634874 0 0 Z " fill="#0A1E29" transform="translate(406.359375,382.02734375)"/>
<path d="M0 0 C2.3359375 1.0234375 2.3359375 1.0234375 4 2 C3.34 3.98 2.68 5.96 2 8 C1.484375 7.835 0.96875 7.67 0.4375 7.5 C-2.80842738 6.83416874 -5.69543832 6.75966824 -9 7 C-11.10358381 8.54262813 -11.84054159 9.68108317 -13 12 C-13.14754174 13.78752492 -13.2211522 15.5816284 -13.25 17.375 C-13.27578125 18.33148438 -13.3015625 19.28796875 -13.328125 20.2734375 C-12.93660107 23.52681492 -12.47355241 24.83627654 -10 27 C-6.80197224 27.48466366 -6.80197224 27.48466366 -3.3125 27.25 C-1.54326172 27.19585937 -1.54326172 27.19585937 0.26171875 27.140625 C1.16535156 27.09421875 2.06898437 27.0478125 3 27 C3 28.98 3 30.96 3 33 C-2.4535393 34.81784643 -9.79096856 35.48018056 -15.1171875 33.0234375 C-17.89744592 30.76880007 -19.73068551 28.30585907 -21 25 C-21.3359375 21.5390625 -21.3359375 21.5390625 -21.375 17.625 C-21.40335937 16.33851563 -21.43171875 15.05203125 -21.4609375 13.7265625 C-20.78735303 8.28080332 -18.38940299 5.28773936 -14.4375 1.625 C-9.65482068 -0.63590295 -5.21364875 -0.6773018 0 0 Z " fill="#0C1F2A" transform="translate(112,381)"/>
<path d="M0 0 C3.6578218 2.03993908 5.66946174 3.50419262 8 7 C8.76142663 13.6352892 8.76142663 13.6352892 6.984375 16.8203125 C3.86350355 20.71200159 1.59074105 21.81991611 -3.3125 22.375 C-8.22547279 21.87537565 -9.58883085 20.49238747 -13 17 C-14.20190901 13.39427296 -14.32670315 10.7897565 -14 7 C-10.43789452 1.27518762 -6.73064276 -0.80767713 0 0 Z " fill="#F8F8F8" transform="translate(199,152)"/>
<path d="M0 0 C3.6578218 2.03993908 5.66946174 3.50419262 8 7 C8.76142663 13.6352892 8.76142663 13.6352892 6.984375 16.8203125 C4.83312465 19.50289576 3.28464992 20.90511669 0 22 C-4.09699372 22.37935127 -6.27793017 22.44928789 -9.8125 20.25 C-12.79730241 17.17991752 -13.82110645 15.37151719 -14.375 11.125 C-13.89541545 7.12846204 -12.53260567 5.09540692 -10 2 C-6.79214982 -0.35242347 -3.90350748 -0.4684209 0 0 Z " fill="#F9F9F9" transform="translate(315,152)"/>
<path d="M0 0 C2.88258588 0.65701649 4.18570607 2.0989665 5.90234375 4.43359375 C7.74317474 8.11525573 7.26963531 12.40605181 6.90234375 16.43359375 C4.87602796 20.94675164 4.87602796 20.94675164 1.90234375 22.43359375 C-5.41209993 22.89800287 -5.41209993 22.89800287 -8.03515625 21.12109375 C-11.01205325 16.39308087 -10.63887787 10.80659104 -10.09765625 5.43359375 C-7.77116746 0.48980507 -5.17100444 -0.31777122 0 0 Z " fill="#F8F8F8" transform="translate(165.09765625,386.56640625)"/>
<path d="M0 0 C12.05526992 -0.43573265 12.05526992 -0.43573265 16 3 C18 6 18 6 17.8125 9.5 C16.75335968 14.06245059 16.75335968 14.06245059 14 16 C10.79478004 17.92313198 8.46742029 18.22282685 4.75 18.125 C3.1825 18.08375 1.615 18.0425 0 18 C0 12.06 0 6.12 0 0 Z " fill="#F8F8F9" transform="translate(234,302)"/>
<path d="M0 0 C8.11111111 0 8.11111111 0 12 3 C14.4826404 6.7239606 14.52996922 9.68686587 14 14 C12.81462302 17.20051784 11.94299185 19.25907783 9.25 21.375 C7 22 7 22 0 22 C0 14.74 0 7.48 0 0 Z " fill="#F0F1F2" transform="translate(220,387)"/>
<path d="M0 0 C1.79092403 2.68638605 2.57445197 4.46526066 3.47265625 7.4921875 C3.86227539 8.79736328 3.86227539 8.79736328 4.25976562 10.12890625 C4.52466797 11.03511719 4.78957031 11.94132812 5.0625 12.875 C5.33126953 13.77347656 5.60003906 14.67195313 5.87695312 15.59765625 C7.10307337 19.73772311 8.15086408 23.75432039 9 28 C3.39 28 -2.22 28 -8 28 C-7.37607296 23.63251072 -6.86109599 20.07445331 -5.625 15.9765625 C-5.23054687 14.66365234 -5.23054687 14.66365234 -4.828125 13.32421875 C-4.55484375 12.43347656 -4.2815625 11.54273438 -4 10.625 C-3.72671875 9.71105469 -3.4534375 8.79710937 -3.171875 7.85546875 C-1.13466151 1.13466151 -1.13466151 1.13466151 0 0 Z " fill="#F2F3F4" transform="translate(167,301)"/>
<path d="M0 0 C2.31 0 4.62 0 7 0 C7 11.22 7 22.44 7 34 C4.69 34 2.38 34 0 34 C0 22.78 0 11.56 0 0 Z " fill="#091D28" transform="translate(275,381)"/>
</svg>
